PathFileType	4	(X/Y/Z)	/Users/niels/Desktop/University/Third Semester/Perception and Action/Exam/Gymnastics Motion Tracking/Code for Gym Tracking/Analyzed Data/Webcam_Backflip/id8_2_trajectory_Sports2D/id8_2_trajectory_Sports2D_px_person00.trc
DataRate	CameraRate	NumFrames	NumMarkers	Units	OrigDataRate	OrigDataStartFrame	OrigNumFrames
29.714285714285715	29.714285714285715	11	22	m	29.714285714285715	39	105
Frame#	Time	Hip			RHip			RKnee			RAnkle			RBigToe			RSmallToe			RHeel			LHip			LKnee			LAnkle			LBigToe			LSmallToe			LHeel			Neck			Head			Nose			RShoulder			RElbow			RWrist			LShoulder			LElbow			LWrist		
		X1	Y1	Z1	X2	Y2	Z2	X3	Y3	Z3	X4	Y4	Z4	X5	Y5	Z5	X6	Y6	Z6	X7	Y7	Z7	X8	Y8	Z8	X9	Y9	Z9	X10	Y10	Z10	X11	Y11	Z11	X12	Y12	Z12	X13	Y13	Z13	X14	Y14	Z14	X15	Y15	Z15	X16	Y16	Z16	X17	Y17	Z17	X18	Y18	Z18	X19	Y19	Z19	X20	Y20	Z20	X21	Y21	Z21	X22	Y22	Z22
39	1.3125	0.9780682925421201	-0.5314673281525882	0.0	0.9722969768449703	-0.5419887093204846	0.0	0.9867782925137323	-0.7592710462731451	0.0	0.9755486836999252	-0.9743440963301969	0.0	1.0704127719935288	-1.0086404108066582	0.0	1.0472287417944823	-1.015230495886063	0.0	0.9501535529787056	-1.0040540161209888	0.0	0.9903554350518098	-0.5426241707406901	0.0	0.9919491231598272	-0.7553872114547558	0.0	0.9787512500189031	-0.9584007655289812	0.0	1.067899072027691	-0.9924342186777004	0.0	1.0523403494388368	-0.9833133357966727	0.0	0.9501360230374836	-0.9814894854856868	0.0	1.0938858997717122	-0.22724303468745677	0.0	1.1606189265314208	-0.11561431244027727	0.0	1.162646001719781	-0.19658538115368604	0.0	1.0546662833082932	-0.2687707307020144	0.0	1.0289222732736378	-0.441754355788436	0.0	1.031098597992345	-0.5870297175942241	0.0	1.0882901923748134	-0.2684385173369048	0.0	1.0498395262127125	-0.4232158779515665	0.0	1.0353565176747173	-0.5631739528908699	0.0
40	1.346153846153846	0.9792110844010908	-0.5322324916274195	0.0	0.9718606842178973	-0.5422315589122315	0.0	0.985879686542771	-0.7596181535680797	0.0	0.9747361031877606	-0.9742057817802166	0.0	1.069869468135827	-1.0085048434595025	0.0	1.0463331319815432	-1.0152192036594037	0.0	0.9495276464203979	-1.0038181074256562	0.0	0.9937201061617302	-0.5432813616239728	0.0	0.9944114230062225	-0.7559595258318857	0.0	0.9796578567415791	-0.9583747677389659	0.0	1.0683985891572199	-0.992066357016149	0.0	1.0534044540134286	-0.9829641832313427	0.0	0.9507543527142597	-0.9813254994381779	0.0	1.092001045888795	-0.22662272285108448	0.0	1.1563013736957313	-0.11256621377696548	0.0	1.159820615639011	-0.19373255618381524	0.0	1.0509151608728677	-0.26823480815915796	0.0	1.0275840744301012	-0.4412246264854323	0.0	1.0327912923727214	-0.586285549699353	0.0	1.0902800918409354	-0.2696117032573977	0.0	1.052190759613032	-0.4239715732707524	0.0	1.0414478158800107	-0.5627989575642867	0.0
41	1.3798076923076923	0.9805173233730115	-0.5325019954771524	0.0	0.9709306855056594	-0.5423802580861347	0.0	0.9853357240468958	-0.7594064014876707	0.0	0.9737290312611775	-0.973804936206105	0.0	1.069340947485132	-1.0081907403466512	0.0	1.0455443581483044	-1.0151188059620309	0.0	0.9488689047379152	-1.0033380370226046	0.0	0.9972476635512796	-0.5439673224783903	0.0	0.9984355928205008	-0.7559446326538477	0.0	0.980879841663951	-0.9577951386919895	0.0	1.0690514954676058	-0.9913361750501072	0.0	1.0548032914213814	-0.9822978646229056	0.0	0.9521571677724392	-0.9809724491788073	0.0	1.0899636421246952	-0.22601740193102318	0.0	1.151484729834722	-0.10940130633734006	0.0	1.1567623554585107	-0.1910991191685702	0.0	1.046846776908187	-0.26787868353015143	0.0	1.0269571716565993	-0.4412409305828905	0.0	1.0369179296750517	-0.5857732473277443	0.0	1.092265949915564	-0.27093571479263695	0.0	1.0553722746152179	-0.42478116404290367	0.0	1.0510162236186467	-0.5610954525335873	0.0
42	1.4134615384615383	0.9820719994793701	-0.532558191026114	0.0	0.9695241011406469	-0.5427889134748359	0.0	0.985374843980833	-0.758712165412624	0.0	0.9726466411411782	-0.9731547277972258	0.0	1.0690471288623697	-1.007710350825973	0.0	1.0450846327116807	-1.0148985613628434	0.0	0.9482430737829484	-1.0028169297221037	0.0	1.0010208060009027	-0.5449055254942518	0.0	1.0044214256859696	-0.7553132200719881	0.0	0.9824313534469101	-0.9566460760747296	0.0	1.0699621863673672	-0.9903564293306458	0.0	1.056570214955611	-0.9813449405204742	0.0	0.954460846277128	-0.9803658863038665	0.0	1.0877572468313794	-0.22561868180435235	0.0	1.1461601341051981	-0.10628797897496256	0.0	1.153102405516212	-0.1885846447696633	0.0	1.0423946542851967	-0.26779224047427996	0.0	1.0271056360048778	-0.4417826035804938	0.0	1.043328266067115	-0.5854192597368038	0.0	1.0944263257490414	-0.27240166464230264	0.0	1.0599559832178913	-0.4253281791787597	0.0	1.0633478579175732	-0.5568558840788659	0.0
43	1.4471153846153846	0.9839221061065251	-0.5327152646210936	0.0	0.9676866921894168	-0.5437031636020734	0.0	0.9860244746769746	-0.757806187864206	0.0	0.9716608093908771	-0.9723803297236895	0.0	1.0690023285476447	-1.0071975098481893	0.0	1.0450096936726219	-1.0145845003117773	0.0	0.9476476227912336	-1.0024470042964837	0.0	1.0051668889071168	-0.5462197380292741	0.0	1.012505524623202	-0.7542190952196902	0.0	0.9843960957752902	-0.9550490489154227	0.0	1.0712313488276828	-0.9893800564807608	0.0	1.05885603170669	-0.980285555996915	0.0	0.9578161907434358	-0.9795064906619185	0.0	1.085361538131582	-0.225573127377701	0.0	1.1403460195705262	-0.10345459937385482	0.0	1.1486532554837376	-0.18611518219028692	0.0	1.0375306948820424	-0.2680636561871928	0.0	1.027940486175896	-0.44284017033460493	0.0	1.0516137889438797	-0.5851339681496749	0.0	1.0969146702213146	-0.27402005809836477	0.0	1.0662553466763578	-0.4254988185297909	0.0	1.0773850642050689	-0.549503795089456	0.0
44	1.4807692307692306	0.985990826151518	-0.5331669635493467	0.0	0.9654535247471703	-0.5450712107597319	0.0	0.9872364022762907	-0.7569341466617601	0.0	0.9708886381860756	-0.9715990340336774	0.0	1.0689157485881084	-1.006816532293536	0.0	1.0450141576298	-1.0142357964200923	0.0	0.9470128259194327	-1.0022446269364975	0.0	1.0097669828367413	-0.5477691310822105	0.0	1.0224534577613276	-0.7527796362273572	0.0	0.9868423276422245	-0.9531057867578907	0.0	1.0728511976714912	-0.9886623199056904	0.0	1.0617583930505097	-0.9793709068966542	0.0	0.9623078499553351	-0.9784171183019238	0.0	1.0827426146470573	-0.22596160484285877	0.0	1.1340543075988616	-0.10108758582180147	0.0	1.143417590940877	-0.1836835322773712	0.0	1.0321955307436121	-0.2687637826913178	0.0	1.0290497613196303	-0.4443909163964005	0.0	1.0610043274593137	-0.5848727806918633	0.0	1.0997310476034325	-0.27580547925083587	0.0	1.0739907175770071	-0.4253223564951126	0.0	1.091753838938629	-0.5400302017240074	0.0
45	1.5144230769230769	0.9880931605030175	-0.5339854034387488	0.0	0.9628725495038313	-0.546710373852762	0.0	0.9889552085125892	-0.7563003847499934	0.0	0.9703182313535397	-0.9708639956195186	0.0	1.0683301412108366	-1.0066489429535692	0.0	1.0445444303522584	-1.0139229131218566	0.0	0.9462558042904382	-1.00207818225947	0.0	1.0147478238968073	-0.5492824189755003	0.0	1.033584185261334	-0.7511258938046413	0.0	0.9897028258065671	-0.9508039254600311	0.0	1.0746719376556926	-0.9882104325036245	0.0	1.0651626916020567	-0.9786226539907406	0.0	0.9677367691357582	-0.9770109965057593	0.0	1.0797971117153102	-0.226774721529652	0.0	1.1274007004378002	-0.09935508493086856	0.0	1.137577859567199	-0.18149032619524827	0.0	1.0262960004148096	-0.2699762249084417	0.0	1.0297953395883435	-0.44643041152927393	0.0	1.0704386343482353	-0.5847287578309226	0.0	1.10261472735463	-0.27774224554220384	0.0	1.0823678064482938	-0.42478581684200917	0.0	1.1049194603038162	-0.5308799421801615	0.0
46	1.548076923076923	0.989981245160675	-0.5351456651127697	0.0	0.9600473338442973	-0.5485032720889237	0.0	0.9910971196993253	-0.7561128465211413	0.0	0.9698455364301796	-0.9702036390435063	0.0	1.0669067264062166	-1.0066581806108146	0.0	1.0431474502136653	-1.0137257065809773	0.0	0.9453989962633541	-1.0018256949365332	0.0	1.0197935802803826	-0.55055960497754	0.0	1.044761019890966	-0.7495776151565972	0.0	0.992746326212494	-0.947999319874136	0.0	1.0764960799654444	-0.9876258959981112	0.0	1.068720003169609	-0.9776161529763658	0.0	0.973494155317674	-0.9749657111919033	0.0	1.0763856719476375	-0.22798707632370552	0.0	1.120598298452826	-0.09839755209096296	0.0	1.1314176113129544	-0.1798490554952172	0.0	1.0198001688916274	-0.2718170121604245	0.0	1.029472003977225	-0.44902587664657884	0.0	1.0787769630226203	-0.5850286442785863	0.0	1.1051597402048694	-0.2797898958038945	0.0	1.0905487559961926	-0.423792181521888	0.0	1.1156398145471018	-0.5234106451692795	0.0
47	1.5817307692307692	0.9914850738712878	-0.5365026557560246	0.0	0.9572634131409885	-0.5502630585384927	0.0	0.993641710661053	-0.7564134196440275	0.0	0.9693804977212291	-0.9696101292852337	0.0	1.0646334391802232	-1.0067594868673164	0.0	1.0407015989377202	-1.013684516501744	0.0	0.9446008161170939	-1.0013736909510553	0.0	1.024504218693967	-0.5514445608656523	0.0	1.054643476158695	-0.7484887625244439	0.0	0.9955850571304047	-0.9445148022944855	0.0	1.078165177059989	-0.9862859758957093	0.0	1.0719328368549335	-0.9756930596864704	0.0	0.9786558470439204	-0.9718562661536676	0.0	1.072408351194067	-0.22962796184890388	0.0	1.1138191035126306	-0.0982613024845537	0.0	1.125189081277707	-0.17897299294476873	0.0	1.0128120405349816	-0.2743821594827957	0.0	1.027375362807253	-0.4522278842988957	0.0	1.0847931576459735	-0.5862245532674646	0.0	1.1070388682998207	-0.28182088999969174	0.0	1.0982162234553394	-0.42228068540603586	0.0	1.1232767588514416	-0.516283753307658	0.0
48	1.6153846153846154	0.9926994592488236	-0.5379480429801353	0.0	0.9550656209928302	-0.5516769807866277	0.0	0.9967314264558189	-0.757058132079126	0.0	0.968949610134112	-0.9690679064524099	0.0	1.0618991924821986	-1.006907012770674	0.0	1.0375145006434003	-1.0137659803500048	0.0	0.9440586589966551	-1.000601729417506	0.0	1.028707736879874	-0.551852453689904	0.0	1.062124454969972	-0.748027242300565	0.0	0.9977009455931175	-0.940443901111748	0.0	1.0795378976526606	-0.9837790878799835	0.0	1.074298738283368	-0.9724667306170888	0.0	0.9822271212392799	-0.9676141517692725	0.0	1.0678233347256054	-0.2317611791750824	0.0	1.107091251716229	-0.09884512148478973	0.0	1.1189766495820845	-0.1789243597193801	0.0	1.0055069492829505	-0.2777123961735986	0.0	1.0228214445660397	-0.45596494685139083	0.0	1.0869771177323955	-0.5886299936571319	0.0	1.1081334176353383	-0.2836073976246331	0.0	1.1058236794960512	-0.4203878086175027	0.0	1.127688780583108	-0.507764094427118	0.0
49	1.6490384615384615	0.993940076283582	-0.5397014076030444	0.0	0.9540819319299478	-0.5527281890331472	0.0	1.0005646671354462	-0.758027989961184	0.0	0.9687705398321276	-0.9686698959773626	0.0	1.0595016675014726	-1.0071330410962904	0.0	1.0344354229782096	-1.01393929627786	0.0	0.9439825068465746	-0.9995849236552197	0.0	1.0324586923463537	-0.5520607067189461	0.0	1.0665637291603816	-0.7482904755584521	0.0	0.9984518728736631	-0.9363085666684605	0.0	1.080415513793428	-0.9801628070460909	0.0	1.0753811725970042	-0.9680933348124096	0.0	0.9832667014919111	-0.9627737326211409	0.0	1.06263716084632	-0.23444584222752585	0.0	1.1002814088181743	-0.09993709373899488	0.0	1.1126123560390107	-0.17968307033111441	0.0	0.997939451640904	-0.28186017820121423	0.0	1.0151845322775734	-0.46010059149341487	0.0	1.083606041823897	-0.5922972322025537	0.0	1.108506113532108	-0.28501962743251447	0.0	1.1142093853814674	-0.41841843556942443	0.0	1.1289614026152974	-0.4972379974239849	0.0
